<!DOCTYPE svg PUBLIC "-//W3C//DTD SVG 1.1//EN" "http://www.w3.org/Graphics/SVG/1.1/DTD/svg11.dtd">
<!-- Uploaded to: SVG Repo, www.svgrepo.com, Transformed by: SVG Repo Mixer Tools -->
<svg width="800px" height="800px" viewBox="0 0 512 512" enable-background="new 0 0 512 512" id="Layer_1" version="1.1" xml:space="preserve" xmlns="http://www.w3.org/2000/svg" xmlns:xlink="http://www.w3.org/1999/xlink" fill="#000000" transform="rotate(-45)">
<g id="SVGRepo_bgCarrier" stroke-width="0"/>
<g id="SVGRepo_tracerCarrier" stroke-linecap="round" stroke-linejoin="round"/>
<g id="SVGRepo_iconCarrier"> <g> <path d="M417.567,255.034c4.777-11.748,7.501-23.42,7.53-34.903c0.202-68.676-47.07-98.077-74.737-98.077 c-78.618,2.903-78.678,78.845-78.678,78.845s-2.244-75.92-78.677-78.845c-27.667,0-74.738,29.401-74.738,98.077 c0,70.615,153.417,200.021,153.417,200.021c8.212-8.033,17.267-16.497,26.734-25.306l3.26-3.828 c17.204,17.145,31.353,29.134,31.353,29.134c34.029-33.427,91.949-79.188,92.069-120.6c0.05-17.151-4.795-30.228-11.661-39.678 L417.567,255.034z" fill="#FEE1E3"/> <path d="M327.894,91.848h-0.414c-47.664,1.362-68.285,30.297-74.939,42.678l-3.703,6.892l-3.768-6.856 c-6.803-12.378-27.646-41.318-74.141-42.706l-0.456-0.007c-33.569,0.044-83.411,34.062-83.571,106.924 c1.124,41.46,38.695,88.256,79.132,132.648c38.832,41.675,77.063,73.896,77.444,74.216c1.617,1.364,3.655,2.111,5.748,2.111 c2.335,0,4.544-0.903,6.22-2.543c6.764-6.612,14.126-13.532,21.076-20.025l2.935-2.742l2.905,2.775 c10.827,10.344,19.204,17.641,22.304,20.298l0.147,0.129l0.001-0.001c1.602,1.358,3.644,2.106,5.752,2.106 c2.352,0,4.565-0.904,6.233-2.545c6.718-6.915,14.654-14.257,23.057-22.03c31.151-28.816,69.915-64.675,71.683-104.975v-0.207 c-0.036-13.601-2.857-25.899-8.388-36.543l-0.988-1.902l1.02-2.083c0.061-0.122,0.124-0.243,0.176-0.371 c5.395-13.282,8.146-26.145,8.181-38.23v-0.459C411.414,125.789,361.554,91.892,327.894,91.848z M313.462,383.977l-3.1,2.889 l-2.895-2.615c-9.07-8.19-22.748-21.048-36.403-35.786c-22.047-22.879-44.804-55.281-43.664-70.387 c0.108-36.687,24.468-49.733,35.585-50.051l0.192-0.005l0.192,0.012c20.691,1.285,27.787,10.722,32.814,19.466l0.084,0.154 c2.807,5.384,4.113,10.796,4.642,13.543c0.114,0.573,0.208,1.103,0.287,1.587h0.354l0.123,4.125 c0.145,4.853,4.055,8.652,8.901,8.652l0.124-0.001c4.789-0.074,8.7-3.994,8.769-8.766c-0.011-0.243-0.005-0.46,0-0.643l0.11-4.139 h0.276c0.521-3.602,1.742-8.994,4.593-14.487l0.071-0.132c4.902-8.683,11.918-18.056,33.242-19.361l0.187-0.011l0.187,0.005 c11.141,0.296,35.573,13.286,35.604,49.957v0.096C395.554,307.469,350.043,349.885,313.462,383.977z M393.738,198.784 c-0.014,5.867-0.862,12.102-2.523,18.541l-1.555,6.026l-5.049-3.639c-8.449-6.09-17.956-9.464-26.773-9.504l-0.426,0.011 c-24.542,0.56-37.944,13.385-43.751,20.981l-3.368,4.406l-3.381-4.396c-5.827-7.579-19.185-20.385-43.163-20.991l-0.438-0.011 c-21.603,0.103-53.558,21.75-53.712,67.97c1.178,29.555,28.505,60.119,48.463,82.44c1.899,2.045,3.866,4.13,5.792,6.138l2.983,3.11 l-3.15,2.941c-4.313,4.025-8.234,7.722-11.989,11.298l-2.824,2.689l-2.923-2.582c-13.509-11.931-40.167-36.235-66.927-64.962 c-35.044-36.762-75.539-90.389-74.32-120.518c0.058-35.405,13.368-56.738,24.528-68.406c14.394-15.048,31.092-20.539,41.018-20.669 l0.137-0.002l0.137,0.007c36.885,1.891,51.491,20.039,60.094,35.639c4.795,9.166,7.173,18.156,8.332,24.099 c0.555,2.844,0.869,5.143,1.054,6.846l0.221,0.032l0.104,3.583c0.141,4.84,4.046,8.631,8.891,8.631l0.131-0.001 c4.833-0.067,8.765-4.046,8.772-8.874l-0.008-0.038l0.065-1.965c0.256-4.638,1.617-18.309,8.836-32.343 c8.421-15.614,22.914-33.697,60.897-35.611l0.134-0.007l0.134,0.002c9.918,0.125,26.611,5.588,41.015,20.569 c11.177,11.625,24.507,32.888,24.541,68.165V198.784z" fill="#959595"/> </g> </g>
</svg>