<?xml version="1.0" encoding="UTF-8" standalone="no"?>
<svg
   version="1.1"
   viewBox="-10 0 1918 1536"
   id="svg77754"
   sodipodi:docname="windowslogo_Wingdings-Regular.svg"
   width="1918"
   height="1536"
   inkscape:version="1.2.2 (1:1.2.2+202212051550+b0a8486541)"
   xmlns:inkscape="http://www.inkscape.org/namespaces/inkscape"
   xmlns:sodipodi="http://sodipodi.sourceforge.net/DTD/sodipodi-0.dtd"
   xmlns="http://www.w3.org/2000/svg"
   xmlns:svg="http://www.w3.org/2000/svg">
  <defs
     id="defs77758" />
  <sodipodi:namedview
     id="namedview77756"
     pagecolor="#ffffff"
     bordercolor="#666666"
     borderopacity="1.0"
     inkscape:showpageshadow="2"
     inkscape:pageopacity="0.0"
     inkscape:pagecheckerboard="0"
     inkscape:deskcolor="#d1d1d1"
     showgrid="false"
     inkscape:zoom="0.42578125"
     inkscape:cx="1076.844"
     inkscape:cy="830.23853"
     inkscape:window-width="1920"
     inkscape:window-height="1019"
     inkscape:window-x="2560"
     inkscape:window-y="0"
     inkscape:window-maximized="1"
     inkscape:current-layer="svg77754" />
  <g
     transform="matrix(1,0,0,-1,-110,1536)"
     id="g77752">
    <path
       fill="currentColor"
       d="m 168,1415 v -59 l -68,-28 v 58 z m -7,-191 v -53 l -55,-25 v 52 z m 0,-192 v -52 l -55,-25 v 52 z m 7,-189 v -59 l -68,-28 v 57 z m -7,-199 v -51 l -55,-25 v 52 z m 0,-194 v -52 l -55,-25 v 51 z m 7,-187 v -60 l -68,-28 v 57 z m 172,1119 v -69 l -92,-35 v 68 z m -5,-200 v -63 l -74,-29 v 63 z m 0,-193 v -62 l -74,-29 v 64 z m 5,-186 v -68 l -92,-36 v 68 z m -5,-200 v -62 l -74,-30 v 64 z m 0,-195 v -62 l -74,-30 v 63 z m 5,-187 v -68 l -92,-38 v 68 z m 172,1118 v -82 l -119,-47 v 81 z m -6,-201 v -73 l -100,-39 v 71 z m 0,-193 V 873 L 406,833 v 72 z m 6,-185 V 678 L 393,631 v 81 z M 506,559 V 487 L 406,446 v 72 z m 0,-187 V 298 L 406,258 v 72 z m 6,-187 V 103 L 393,55 v 82 z m 188,1159 v -108 l -149,-60 v 107 z m -8,-201 v -99 L 567,993 v 99 z m 0,-193 V 852 L 567,801 v 99 z m 8,-186 V 656 L 551,597 V 705 Z M 692,563 V 464 L 567,414 v 99 z m 0,-187 V 277 L 567,227 v 98 z m 8,-186 V 82 L 551,22 v 107 z m 197,1172 v -141 l -166,-68 v 141 z m -8,-212 V 1032 L 747,975 v 119 z m 0,-184 V 847 L 747,791 v 118 z m 8,-183 V 642 L 731,575 V 716 Z M 889,572 V 452 L 747,397 v 118 z m 0,-188 V 265 L 747,208 v 119 z m 8,-176 V 67 L 731,0 v 141 z m 201,1225 v -193 l -177,-74 v 180 q 92,53 177,87 z m 0,-213 V 1053 L 921,978 v 168 z m 0,-188 V 863 L 921,788 v 169 z m 0,-190 V 675 L 921,600 v 168 z m 0,-188 V 482 L 921,406 v 173 z m 0,-193 V 293 L 921,216 v 170 z m 0,-189 V 92 Q 994,52 921,15 v 181 z m 920,1154 V 75 q -171,112 -427,112 -212,0 -474,-88 v 180 q 139,55 306,79 v 440 q -141,-18 -306,-98 v 129 q 143,66 306,90 v 427 q -147,-28 -306,-95 v 190 q 233,95 457,95 241,0 444,-110 z m -177,-121 q -111,56 -266,56 -18,0 -36,-2 V 927 l 40,1 q 133,0 262,-42 z m 0,-547 q -119,52 -264,52 -18,0 -38,-2 V 368 h 40 q 145,0 262,-36 z M 1957,20 v 29 h -12 v 5 h 29 v -5 h -12 V 20 Z m 21,0 v 34 h 8 l 12,-26 12,26 h 8 V 20 h -5 v 28 l -12,-26 h -6 l -12,26 V 20 Z"
       id="path77750" />
  </g>
</svg>
